<?xml version="1.0" encoding="iso-8859-1"?>
<!-- Generator: Adobe Illustrator 19.0.0, SVG Export Plug-In . SVG Version: 6.00 Build 0)  -->
<svg version="1.1" id="Layer_1" xmlns="http://www.w3.org/2000/svg" xmlns:xlink="http://www.w3.org/1999/xlink" x="0px" y="0px"
	 viewBox="0 0 512.001 512.001" style="enable-background:new 0 0 512.001 512.001;" xml:space="preserve">
<path style="fill:#FED159;" d="M472.107,227.017l-83.691-13.777l-33.88-82.269H143.224c-28.436,0-53.696,13.559-69.673,34.567
	c-14.315,28.309-17.834,65.891-17.834,65.891v17.822c-19.083,6.693-32.768,24.848-32.768,46.212v66.579h29.146
	c0-9.616,2.395-18.671,6.613-26.613h100.493c1.352,2.544,2.51,5.203,3.473,7.954c2.029,5.845,3.14,12.126,3.14,18.659h167.553
	c0-6.533,1.1-12.814,3.14-18.659c7.713-22.235,28.848-38.201,53.719-38.201c31.404,0,56.86,25.456,56.86,56.86h44.16V249.562
	C491.248,238.387,483.144,228.84,472.107,227.017z"/>
<path style="fill:#EFBE52;" d="M472.108,227.017l-83.691-13.777l-33.88-82.269h-40.115l33.88,82.269l83.691,13.777
	c11.037,1.822,19.14,11.37,19.14,22.544v112.481h40.115V249.562C491.247,238.387,483.144,228.84,472.108,227.017z"/>
<path style="fill:#FDE096;" d="M56.956,334.215v-38.751c0-21.364,13.685-39.519,32.768-46.212V231.43
	c0,0,3.516-37.582,17.834-65.891c15.977-21.009,41.238-34.567,69.673-34.567h-34.007c-28.436,0-53.696,13.559-69.673,34.567
	c-14.317,28.309-17.834,65.891-17.834,65.891v17.822c-19.083,6.693-32.768,24.848-32.768,46.212v38.751v27.828h29.146
	c0-8.179,1.747-15.944,4.861-22.972C56.956,339.071,56.956,334.215,56.956,334.215z"/>
<g>
	<path style="fill:#CCCCCC;" d="M390.228,335.659c14.567,0,26.384,11.817,26.384,26.384s-11.817,26.384-26.384,26.384
		s-26.384-11.817-26.384-26.384S375.66,335.659,390.228,335.659z"/>
	<path style="fill:#CCCCCC;" d="M108.955,335.659c14.567,0,26.372,11.817,26.372,26.384s-11.805,26.384-26.372,26.384
		c-14.579,0-26.384-11.817-26.384-26.384S94.376,335.659,108.955,335.659z"/>
</g>
<g>
	<path style="fill:#666666;" d="M390.228,305.183c31.404,0,56.86,25.456,56.86,56.86s-25.456,56.86-56.86,56.86
		s-56.86-25.456-56.86-56.86S358.823,305.183,390.228,305.183z M416.611,362.043c0-14.567-11.817-26.384-26.384-26.384
		c-14.567,0-26.384,11.817-26.384,26.384s11.817,26.384,26.384,26.384C404.795,388.427,416.611,376.61,416.611,362.043z"/>
	<path style="fill:#666666;" d="M108.955,335.659c-14.579,0-26.384,11.817-26.384,26.384s11.805,26.384,26.384,26.384
		c14.567,0,26.372-11.817,26.372-26.384S123.522,335.659,108.955,335.659z M58.708,335.43h100.493
		c4.218,7.943,6.613,16.997,6.613,26.613c0,31.404-25.456,56.86-56.86,56.86s-56.86-25.456-56.86-56.86
		C52.095,352.427,54.491,343.372,58.708,335.43z"/>
</g>
<path style="fill:#72C5D5;" d="M491.247,259.212v43.553H469.47c-6.006,0-11.461-2.441-15.393-6.384
	c-3.943-3.931-6.384-9.387-6.384-15.393c0-12.034,9.754-21.776,21.776-21.776H491.247L491.247,259.212z"/>
<path style="fill:#EE4948;" d="M354.536,92.255v38.716h-41.123v-2.04c0-20.252,16.413-36.676,36.676-36.676H354.536z"/>
<g>
	<path style="fill:#72C5D5;" d="M73.551,165.539c19.095,9.948,32.16,29.948,32.16,52.94v12.951H55.717v-12.951
		C55.717,198.582,62.353,180.232,73.551,165.539z"/>
	<path style="fill:#72C5D5;" d="M175.877,161.481v69.96h-41.914v-12.963C133.963,191.705,151.591,169.046,175.877,161.481z"/>
	<path style="fill:#72C5D5;" d="M264.131,158.799v72.642h-88.252v-69.96c5.616-1.742,11.576-2.682,17.765-2.682H264.131z"/>
</g>
<path style="fill:#EFBE52;" d="M336.509,343.384c-2.04,5.845-3.14,12.126-3.14,18.659H165.815c0-6.533-1.112-12.814-3.14-18.659
	H336.509z"/>
<path style="fill:#72C5D5;" d="M365.814,231.441H264.13v-72.642h57.41c4.55,0,8.86,1.433,12.413,3.943
	c3.232,2.304,5.857,5.501,7.427,9.341L365.814,231.441z"/>
<path style="fill:#A2E4ED;" d="M333.953,162.742l-28.413,68.699H198.446l32.619-72.642h90.476
	C326.089,158.799,330.399,160.232,333.953,162.742z"/>
<rect x="269.089" y="283.657" width="17.192" height="17.192"/>
<rect x="200.321" y="283.657" width="17.192" height="17.192"/>
<rect x="251.897" y="266.465" width="17.192" height="17.192"/>
<rect x="234.705" y="283.657" width="17.192" height="17.192"/>
<rect x="217.513" y="266.465" width="17.192" height="17.192"/>
<path d="M301.845,353.869H173.877c-1.023-7.699-3.393-15.198-7.032-22.049c-1.491-2.809-4.413-4.564-7.592-4.564H58.762
	c-3.179,0-6.101,1.756-7.592,4.564c-3.638,6.85-6.008,14.351-7.032,22.049h-12.54v-10.636h1.192c4.747,0,8.596-3.849,8.596-8.596
	c0-4.747-3.849-8.596-8.596-8.596h-1.192v-30.155c0-17.121,10.857-32.432,27.017-38.101c3.445-1.208,5.751-4.461,5.751-8.111v-9.226
	h41.398c4.747,0,8.596-3.849,8.596-8.596V218.9c0-21.947-10.419-42.166-27.751-54.924c14.803-15.347,34.989-23.987,56.668-23.987
	h23.324c4.747,0,8.596-3.849,8.596-8.596c0-4.747-3.849-8.596-8.596-8.596h-23.324c-30.281,0-58.17,13.836-76.51,37.953
	C53.95,177.57,47.175,197.677,47.175,218.9v25.035c-19.827,9.468-32.768,29.631-32.768,51.951v30.155H8.596
	c-4.747,0-8.596,3.849-8.596,8.596c0,4.747,3.849,8.596,8.596,8.596h5.811v19.232c0,4.747,3.849,8.596,8.596,8.596h21.132
	c4.225,32.042,31.696,56.86,64.873,56.86s60.649-24.817,64.873-56.86h127.963c4.748,0,8.596-3.849,8.596-8.596
	S306.593,353.869,301.845,353.869z M76.058,177.567c13.174,9.532,21.111,24.775,21.111,41.333v4.355H64.367V218.9
	C64.367,204.092,68.395,189.955,76.058,177.567z M126.785,362.465c0,9.809-7.975,17.788-17.777,17.788
	c-9.809,0-17.788-7.979-17.788-17.788s7.979-17.788,17.788-17.788C118.81,344.677,126.785,352.657,126.785,362.465z
	 M109.009,410.728c-26.612,0-48.264-21.652-48.264-48.264c0-6.274,1.168-12.314,3.479-18.017h14.815
	c-3.178,5.266-5.01,11.432-5.01,18.017c0,19.288,15.692,34.98,34.98,34.98c19.281,0,34.968-15.692,34.968-34.98
	c0-6.586-1.832-12.752-5.007-18.017h14.825c2.311,5.703,3.479,11.744,3.479,18.017C157.272,389.077,135.621,410.728,109.009,410.728
	z"/>
<path d="M125.421,218.9v12.963c0,4.747,3.849,8.596,8.596,8.596h231.851c2.868,0,5.546-1.43,7.142-3.813
	c1.597-2.383,1.898-5.404,0.807-8.055l-24.436-59.358c-4.653-11.303-15.56-18.607-27.788-18.607H193.696
	c-6.916,0-13.75,1.032-20.321,3.07C144.692,162.63,125.421,188.834,125.421,218.9z M333.483,175.777l19.551,47.49h-80.254v-55.45
	h48.815C326.826,167.817,331.493,170.942,333.483,175.777z M255.587,167.817v55.45h-71.06v-54.626
	c3.013-0.543,6.078-0.824,9.169-0.824L255.587,167.817L255.587,167.817z M167.335,175.093v48.174h-24.722V218.9
	C142.613,200.567,152.187,184.156,167.335,175.093z"/>
<path d="M390.281,327.485c-19.288,0-34.981,15.692-34.981,34.98s15.692,34.98,34.981,34.98c19.287,0,34.98-15.692,34.98-34.98
	S409.568,327.485,390.281,327.485z M390.281,380.253c-9.809,0-17.789-7.979-17.789-17.788s7.981-17.788,17.789-17.788
	c9.809,0,17.788,7.979,17.788,17.788S400.089,380.253,390.281,380.253z"/>
<path d="M503.404,326.041h-3.508v-76.057c0-15.458-11.076-28.507-26.34-31.026l-78.963-12.998l-31.407-76.266V92.677
	c0-4.747-3.848-8.596-8.596-8.596h-4.447c-22.736,0-41.605,16.849-44.792,38.716H197.547c-4.747,0-8.596,3.849-8.596,8.596
	c0,4.747,3.849,8.596,8.596,8.596h151.286l31.688,76.947c1.134,2.754,3.613,4.725,6.552,5.208l83.686,13.777
	c6.922,1.143,11.945,7.057,11.945,14.063v1.054h-13.181c-16.747,0-30.372,13.625-30.372,30.372c0,8.123,3.164,15.751,8.893,21.462
	c5.73,5.746,13.357,8.91,21.48,8.91h13.181v14.258h-14.384c-4.748,0-8.596,3.849-8.596,8.596c0,4.747,3.848,8.596,8.596,8.596
	h14.384v10.636h-27.551c-4.225-32.042-31.696-56.86-64.872-56.86c-36.093,0-65.456,29.364-65.456,65.456
	s29.363,65.456,65.456,65.456c33.177,0,60.648-24.817,64.872-56.86h36.147c4.748,0,8.596-3.849,8.596-8.596v-19.232h3.508
	c4.748,0,8.596-3.849,8.596-8.596C512.001,329.889,508.152,326.041,503.404,326.041z M345.993,122.797h-23.159
	c2.646-11.018,11.804-19.53,23.159-21.218V122.797z M460.201,290.716c-2.487-2.48-3.857-5.785-3.857-9.305
	c0-7.268,5.913-13.181,13.181-13.181h13.181v26.361h-13.181C466.003,294.591,462.699,293.221,460.201,290.716z M390.281,410.728
	c-26.613,0-48.264-21.652-48.264-48.264c0-26.613,21.652-48.264,48.264-48.264s48.262,21.652,48.262,48.264
	C438.543,389.077,416.893,410.728,390.281,410.728z"/>
<g>
</g>
<g>
</g>
<g>
</g>
<g>
</g>
<g>
</g>
<g>
</g>
<g>
</g>
<g>
</g>
<g>
</g>
<g>
</g>
<g>
</g>
<g>
</g>
<g>
</g>
<g>
</g>
<g>
</g>
</svg>
